<?xml version="1.0" encoding="UTF-8"?>
<svg xmlns="http://www.w3.org/2000/svg" width="1440" height="780" viewBox="0 0 1440 780" fill="none">
  <rect width="1440" height="780" fill="#00E784"></rect>
  <line x1="720.5" y1="82" x2="720.5" y2="676" stroke="#00493E"></line>
  <path d="M897.697 409.102C894.578 412.645 890.659 415.414 886.257 417.184C881.854 418.954 877.092 419.676 872.355 419.291C867.618 418.905 863.039 417.424 858.989 414.967C854.939 412.509 851.531 409.144 849.041 405.144C847.402 402.485 846.179 399.597 845.413 396.577C845.334 396.261 845.258 395.945 845.19 395.625C845.165 395.523 845.147 395.423 845.129 395.324C844.744 393.399 844.554 391.441 844.561 389.478C844.561 389.166 844.561 388.854 844.579 388.541C844.607 387.718 844.696 386.899 844.845 386.089H821.137C821.137 386.351 821.104 386.607 821.09 386.866C821.09 386.866 821 388.616 821 389.478C820.997 394.464 821.706 399.425 823.105 404.215C823.727 406.495 824.535 408.722 825.523 410.873V410.873C829.196 419.125 834.93 426.32 842.188 431.783C849.447 437.245 857.99 440.797 867.018 442.104C876.046 443.411 885.261 442.43 893.801 439.255C902.34 436.079 909.923 430.812 915.838 423.948L897.697 409.102Z" fill="#00493E"></path>
  <path d="M1023.38 441.729H1001.83V364.677H1023.38V375.48C1024.88 373 1026.87 370.841 1029.23 369.131C1033.14 366.203 1037.75 365.106 1042.14 364.354C1047.02 363.529 1052.02 363.633 1056.86 364.659L1057.75 364.843L1054.04 387.977L1052.9 387.533C1048.41 385.714 1043.49 385.187 1038.7 386.014C1034.29 386.649 1030.31 388.937 1027.56 392.403C1025.3 395.207 1023.91 398.866 1023.44 403.278V404.566C1023.4 405.23 1023.38 405.939 1023.38 406.678V441.729Z" fill="#00493E"></path>
  <path d="M1115.67 409.474C1114.53 412.735 1112.55 415.647 1109.93 417.926C1107.31 420.206 1104.14 421.775 1100.72 422.48C1097.3 423.186 1093.76 423.004 1090.43 421.951C1087.11 420.899 1084.12 419.013 1081.75 416.477L1099.19 409.091V409.066L1107.82 405.446L1135.48 393.815C1133.19 384.285 1127.4 375.935 1119.23 370.384C1111.06 364.834 1101.1 362.479 1091.27 363.778C1081.45 365.076 1072.46 369.935 1066.06 377.411C1059.65 384.887 1056.29 394.447 1056.61 404.237C1056.94 414.026 1060.94 423.346 1067.83 430.388C1074.72 437.43 1084.01 441.691 1093.9 442.346C1103.79 443 1113.58 440 1121.36 433.929C1129.14 427.858 1134.35 419.147 1136 409.489L1115.67 409.474ZM1096.59 382.955C1100.88 382.952 1105.06 384.308 1108.52 386.824L1076.55 400.254C1077.21 395.465 1079.6 391.074 1083.29 387.894C1086.97 384.713 1091.7 382.959 1096.59 382.955V382.955Z" fill="#00493E"></path>
  <path d="M1339.99 441.729H1318.4V397.049C1318.4 391.892 1317.29 388.296 1315.11 386.366C1312.91 384.399 1310.03 383.344 1307.06 383.42C1305.09 383.472 1303.16 384.006 1301.44 384.974C1299.51 386.004 1297.85 387.714 1296.52 390.071C1295.2 392.428 1294.5 395.608 1294.5 399.48V441.715H1272.9V397.049C1272.9 391.878 1271.87 388.275 1269.82 386.348C1267.77 384.421 1265.24 383.42 1262.18 383.42C1260.39 383.42 1258.45 383.945 1256.4 384.985C1254.34 386.025 1252.61 387.736 1251.17 390.096C1249.73 392.456 1249.01 395.629 1249.01 399.48V441.715H1227.42V364.517H1249.01V374.1C1251.02 371.262 1253.54 368.814 1256.44 366.877C1260.16 364.479 1264.51 363.233 1268.95 363.299C1274.26 363.299 1278.69 364.538 1282.12 366.976C1284.78 368.865 1287.3 371.945 1289.62 376.204C1291.61 373.141 1294.65 369.486 1298.91 367.086C1303.26 364.607 1308.2 363.305 1313.22 363.314C1318.5 363.314 1323.19 364.538 1327.17 366.952C1331.15 369.365 1334.36 373.17 1336.61 378.231C1338.87 383.292 1340 389.588 1340 397.066L1339.99 441.729Z" fill="#00493E"></path>
  <path d="M1200.56 409.474C1199.42 412.735 1197.45 415.647 1194.83 417.926C1192.21 420.206 1189.03 421.775 1185.61 422.48C1182.2 423.186 1178.65 423.004 1175.33 421.951C1172 420.899 1169.01 419.013 1166.64 416.477L1184.09 409.091V409.066L1192.71 405.446L1220.37 393.815C1218.08 384.285 1212.29 375.935 1204.12 370.384C1195.96 364.834 1185.99 362.479 1176.17 363.778C1166.34 365.076 1157.35 369.935 1150.95 377.411C1144.54 384.887 1141.18 394.447 1141.51 404.237C1141.83 414.026 1145.83 423.346 1152.72 430.388C1159.61 437.43 1168.9 441.691 1178.8 442.346C1188.69 443 1198.47 440 1206.25 433.929C1214.03 427.858 1219.25 419.147 1220.89 409.489L1200.56 409.474ZM1181.48 382.955C1185.77 382.952 1189.96 384.308 1193.42 386.824L1161.45 400.254C1162.1 395.465 1164.5 391.074 1168.18 387.894C1171.86 384.713 1176.59 382.959 1181.48 382.955V382.955Z" fill="#00493E"></path>
  <path d="M984.858 371.917C978.543 366.714 970.256 364.073 960.23 364.073C950.84 364.073 942.891 366.316 936.601 370.735C930.814 374.795 926.827 379.824 924.747 385.681L924.387 386.745L945.556 390.547L945.883 389.925C946.819 388.152 948.13 386.598 949.727 385.368C951.986 383.615 955.115 382.728 959.041 382.728C963.761 382.728 967.16 383.792 969.146 385.922C970.82 387.721 971.891 390.83 972.131 394.554C956.872 393.748 944.737 395.036 936.048 398.387C926.579 402.032 921.78 408.921 921.78 418.866C921.723 423.122 922.891 427.306 925.145 430.933C927.387 434.681 930.677 437.676 934.927 439.806C939.177 441.935 944.213 443 950.039 443C956.405 443 961.929 441.602 966.459 438.844C969.487 437.011 972.19 434.7 974.463 432.005V441.818H994.503V399.409C994.493 386.44 991.253 377.191 984.858 371.917ZM968.805 416.452C967.102 418.959 964.922 421.114 962.386 422.798C959.911 424.427 957.357 425.282 954.81 425.389C951.142 425.573 948.304 424.988 946.368 423.653C944.464 422.344 943.537 420.367 943.537 417.62C943.537 413.829 946.318 411.306 952.04 409.9C956.093 408.954 960.247 408.497 964.412 408.537C966.959 408.542 969.504 408.675 972.038 408.935C971.489 411.632 970.389 414.19 968.805 416.452Z" fill="#00493E"></path>
  <path d="M848.883 371.388C857.114 371.388 863.787 364.795 863.787 356.662C863.787 348.53 857.114 341.937 848.883 341.937C840.652 341.937 833.979 348.53 833.979 356.662C833.979 364.795 840.652 371.388 848.883 371.388Z" fill="#00493E"></path>
  <path d="M918.561 358.135C918.561 358.135 907.756 340.766 884.891 337L878.763 359.69C878.763 359.69 891.576 360.194 900.442 372.957L918.561 358.135Z" fill="#00493E"></path>
  <path d="M298.634 362.498C316.516 362.498 331.013 348.023 331.013 330.168C331.013 312.312 316.516 297.837 298.634 297.837C280.751 297.837 266.255 312.312 266.255 330.168C266.255 348.023 280.751 362.498 298.634 362.498Z" fill="#00493E"></path>
  <path d="M404.676 445.305C397.9 453.086 389.385 459.165 379.82 463.051C370.255 466.936 359.908 468.52 349.617 467.672C339.325 466.825 329.378 463.571 320.58 458.174C311.781 452.777 304.378 445.388 298.97 436.604C295.408 430.765 292.748 424.422 291.08 417.791C290.912 417.097 290.744 416.403 290.599 415.705C290.549 415.48 290.511 415.263 290.465 415.041C289.621 410.814 289.195 406.514 289.194 402.203C289.194 401.52 289.217 400.838 289.24 400.155C289.298 398.348 289.488 396.547 289.809 394.768H238.298C238.256 395.34 238.229 395.911 238.195 396.472C238.195 396.472 238 400.312 238 402.192C237.996 413.141 239.539 424.037 242.582 434.557C245.152 443.67 247.868 449.187 247.868 449.187H247.891C266.041 490.253 307.218 518.992 355.002 518.992C371.952 519.014 388.703 515.351 404.091 508.255C419.48 501.16 433.136 490.804 444.112 477.907L404.676 445.305Z" fill="#00493E"></path>
  <path d="M449.996 333.408C449.996 333.408 426.518 295.278 376.844 287L363.54 336.806C363.54 336.806 391.375 337.912 410.632 365.93L449.996 333.408Z" fill="#00493E"></path>
</svg>
